<svg xmlns="http://www.w3.org/2000/svg" width="75.022" height="75.019" viewBox="0 0 75.022 75.019"><g transform="translate(-0.001 0)"><path d="M80.509,72.949,64.346,56.786a29.836,29.836,0,1,0-7.561,7.56L72.947,80.51a5.347,5.347,0,0,0,7.562-7.561Zm0,0" transform="translate(-8.51 -8.512)" fill="#e0e0de" fill-rule="evenodd"/><path d="M103.818,73.488a21.449,21.449,0,1,0,0,30.333,21.448,21.448,0,0,0,0-30.333Zm0,0" transform="translate(-57.354 -57.358)" fill="#fff" fill-rule="evenodd"/><path d="M85.386,61.053a1.462,1.462,0,1,0-.658,2.848,19.966,19.966,0,1,1-10.787.485,1.461,1.461,0,1,0-.914-2.777A22.661,22.661,0,0,0,64,67.171a22.908,22.908,0,1,0,21.382-6.118Zm0,0" transform="translate(-48.907 -52.075)" fill="#557a95" fill-rule="evenodd"/><path d="M73.032,63.4,57.715,48.087a31.279,31.279,0,1,0-9.628,9.628L63.4,73.031A6.808,6.808,0,1,0,73.032,63.4Zm-2.067,7.561a3.9,3.9,0,0,1-5.494,0L49.308,54.8a1.462,1.462,0,0,0-1.866-.168,28.376,28.376,0,0,1-36.208-43.4,28.376,28.376,0,0,1,43.4,36.208,1.461,1.461,0,0,0,.168,1.867L70.965,65.47a3.89,3.89,0,0,1,0,5.494Zm0,0" transform="translate(0)" fill="#557a95" fill-rule="evenodd"/><path d="M168.525,150.878a1.462,1.462,0,0,0-2.067,0l-6.756,6.756-6.757-6.756a1.461,1.461,0,1,0-2.067,2.067l6.756,6.757-6.756,6.756a1.461,1.461,0,1,0,2.067,2.067l6.756-6.756,6.756,6.756a1.462,1.462,0,1,0,2.067-2.067l-6.757-6.756,6.757-6.757a1.462,1.462,0,0,0,0-2.067Zm0,0" transform="translate(-128.405 -128.405)" fill="#7395ae" fill-rule="evenodd"/><path d="M198.462,60.3A1.462,1.462,0,1,0,197,58.84,1.464,1.464,0,0,0,198.462,60.3Zm0,0" transform="translate(-168.134 -48.971)" fill="#557a95" fill-rule="evenodd"/></g></svg>